<svg xmlns="http://www.w3.org/2000/svg" version="1.1" xmlns:xlink="http://www.w3.org/1999/xlink" width="512" height="512" x="0" y="0" viewBox="0 0 370.001 370.001" style="enable-background:new 0 0 512 512" xml:space="preserve" class=""><g><path d="M260.422 314.065a549.633 549.633 0 0 0-7.909-1.164c-6.301-.895-7.993-1.135-15.359-3.428-2.903-.904-14.259-12.358-14.259-34.775 0-28.879 6.857-54.382 9.803-64.005.078-.251.27-.978.536-1.962.487-1.807 4.062-12.719 4.062-12.719 1.938-5.551 3.944-11.293 5.247-17.191l.07-.302c1.967-8.54 8.424-39.756 8.882-82.935 0-4.357-3.622-8.148-5.785-10.412-.396-.416-.747-.78-1.009-1.086-2.083-2.422-4.825-5.412-8.001-8.872a1317.15 1317.15 0 0 1-6.879-7.546c-3.972-4.393-8.401-8.412-12.686-12.297-5.269-4.775-10.714-9.713-15.189-15.28-6.688-8.317-12.871-22.874-11.752-34.606.17-1.77-.243-3.299-1.162-4.309-1.02-1.123-2.62-1.473-4.029-.916-1.411-.557-3.012-.207-4.03.916-.918 1.01-1.333 2.539-1.161 4.309 1.117 11.732-5.066 26.289-11.752 34.606-4.477 5.567-9.922 10.505-15.191 15.28-4.283 3.885-8.715 7.904-12.685 12.297-2.482 2.75-4.789 5.264-6.88 7.546-3.177 3.46-5.917 6.45-8.002 8.872-.262.306-.61.67-1.007 1.086-2.163 2.264-5.786 6.055-5.786 10.434.459 43.157 6.916 74.373 8.883 82.913l.069.302c1.303 5.898 3.31 11.641 5.246 17.191 0 0 3.574 10.912 4.061 12.719.267.984.46 1.711.538 1.962 2.945 9.623 9.801 35.126 9.801 64.005 0 22.418-11.355 33.871-14.257 34.775-7.366 2.293-9.059 2.533-15.361 3.428-2.051.289-4.569.647-7.907 1.164-36.177 3.85-40.083 21.809-40.083 29.353 0 2.022 1.047 8.592 5.822 14.649C79.612 363.509 88.158 370 104.516 370c2.454 0 5.05-.146 7.718-.434 10.887-1.17 21.859-2.928 32.468-4.627 3.854-.617 7.701-1.233 11.555-1.824 5.134-.787 14.387-1.309 27.498-1.549.614-.012 1.041-.021 1.248-.027.207.006.634.016 1.246.027 13.113.24 22.365.762 27.5 1.549 3.852.591 7.7 1.207 11.553 1.824 10.61 1.699 21.583 3.457 32.468 4.627a72.57 72.57 0 0 0 7.718.434c16.361 0 24.909-6.488 29.197-11.933 4.775-6.056 5.82-12.628 5.82-14.649-.002-7.544-3.906-25.503-40.083-29.353zm-56.29-147.029c-.539 0-1.05-.117-1.567-.362-1.683-.671-3.841-3.886-4.042-5.134 8.382-5.832 14.045-16.91 14.045-29.625 0-18.777-1.982-34-27.567-34s-27.567 15.223-27.567 34c0 12.715 5.663 23.793 14.044 29.625-.197 1.245-2.404 4.307-4.041 5.134a3.574 3.574 0 0 1-1.567.362c-5.387.002-12.139-11.797-13.912-16.492-3.021-7.977-6.792-21.688-7.601-41.697l-.033-.77c-.207-4.215 6.142-14.994 6.983-16.838 1.156-2.539 16.154-25.4 20.608-30.816 1.577-1.915 9.566-12.523 13.087-17.205 3.52 4.682 11.508 15.29 13.084 17.205 4.457 5.416 19.451 28.277 20.609 30.816.842 1.844 7.191 12.623 6.985 16.838l-.033.77c-.81 20.01-4.579 33.721-7.603 41.697-1.773 4.694-8.523 16.492-13.912 16.492z" fill="#ffffff" opacity="1" data-original="#000000" class=""></path></g></svg>